# xmcd
#
# Track frame offsets:
#	150
#	14287
#	26208
#	37785
#	51744
#	66530
#	82717
#	96406
#	109777
#	125958
#	139740
#	151243
#	165189
#	180551
#	194575
#	206102
#	218450
#	233761
#	249690
#	263824
#	278378
#	292699
#	304764
#	319993
#	333934
#
# Disc length: 4639 seconds
#
# Revision: 0
# Processed by: cddbd v1.5.2PL0 Copyright (c) Steve Scherf et al.
# Submitted via: EasyCDDAExtractor 10.0.6.1
#
DISCID=65121d19
DTITLE=Bonde do Forró - Vol.07 ''Ao Vivo em Vitória''
DYEAR=2007
DGENRE=Forró
TTITLE0=Agarra Agarra (Ao Vivo)
TTITLE1=Pisa de Mansinho (Ao Vivo)
TTITLE2=Paixão Que Devora (Ao Vivo)
TTITLE3=Depois Daquele Beijo (Ao Vivo)
TTITLE4=Agora Vai (Ao Vivo)
TTITLE5=Moldura (Ao Vivo)
TTITLE6=Pra Te Dizer (Ao Vivo)
TTITLE7=Diz Pro Meu Olhar (Ao Vivo)
TTITLE8=Passou da Conta (Ao Vivo)
TTITLE9=Meu Jeito de Sentir (Ao Vivo)
TTITLE10=Aprenda Coração (Ao Vivo)
TTITLE11=90% de Você em Mim (Ao Vivo)
TTITLE12=Cabra Danado (Ao Vivo)
TTITLE13=A Nossa História o Nosso Amor (Ao Vivo)
TTITLE14=Cabaré Ambulante (Ao Vivo)
TTITLE15=O Site da Maria Birinyte (Ao Vivo)
TTITLE16=Banho de Espuma (Ao Vivo)
TTITLE17=Me Esqueça (Ao Vivo)
TTITLE18=O Primeiro Amor (Pra Sempre em Minha História) (Ao Vivo)
TTITLE19=Teu Sorriso a Tua Voz (Ao Vivo)
TTITLE20=Um Anjo (Ao Vivo)
TTITLE21=Amigo Loucutor (Ao Vivo)
TTITLE22=Não Sei Se Vou Lá (Ao Vivo)
TTITLE23=Louco de Amor (Ao Vivo)
TTITLE24=Agarra Agarra II (Ao Vivo)
EXTD=
EXTT0=
EXTT1=
EXTT2=
EXTT3=
EXTT4=
EXTT5=
EXTT6=
EXTT7=
EXTT8=
EXTT9=
EXTT10=
EXTT11=
EXTT12=
EXTT13=
EXTT14=
EXTT15=
EXTT16=
EXTT17=
EXTT18=
EXTT19=
EXTT20=
EXTT21=
EXTT22=
EXTT23=
EXTT24=
PLAYORDER=
